Coordinates
version=1
nRows=11
nColumns=36
inDegrees=yes

Units are S.I. units (second, meters, Newtons, ...)
If the header above contains a line with 'inDegrees', this indicates whether rotational values are in degrees (yes) or radians (no).

endheader
time	pelvis_tilt	pelvis_list	pelvis_rotation	pelvis_tx	pelvis_ty	pelvis_tz	hip_flexion_r	hip_adduction_r	hip_rotation_r	knee_angle_r	knee_angle_r_beta	ankle_angle_r	subtalar_angle_r	mtp_angle_r	hip_flexion_l	hip_adduction_l	hip_rotation_l	knee_angle_l	knee_angle_l_beta	ankle_angle_l	subtalar_angle_l	mtp_angle_l	lumbar_extension	lumbar_bending	lumbar_rotation	arm_flex_r	arm_add_r	arm_rot_r	elbow_flex_r	pro_sup_r	arm_flex_l	arm_add_l	arm_rot_l	elbow_flex_l	pro_sup_l
      0.00000000	     -1.45179488	     -0.70966078	      0.55680309	     -0.96752999	      1.25743683	     -0.04543521	      6.28309185	      4.25467477	      7.23955077	     11.11472426	      0.19398853	      6.17674932	    -15.85624854	     -5.53078500	      8.82725816	     -2.15977145	      4.66018630	     15.37140290	      0.26828159	      8.94515595	    -13.65152816	     -5.53078500	    -13.98323704	      2.83352785	      2.68923370	      3.47460651	    -13.81587848	     35.27484230	     18.16915723	     56.31445891	     -3.17951254	    -17.50057732	     32.76124715	     38.14137729	     58.67425169
      0.00416670	     -2.61706503	     -1.03948346	      0.24860025	     -0.96728375	      1.25848905	     -0.04532478	      8.37960756	      4.73485852	      7.66185278	     13.08973490	      0.22845897	      8.85474899	    -14.03851889	     -5.89831167	     10.20161414	     -1.90827738	      5.87700075	     15.65146774	      0.27316964	      8.70084916	    -13.45728787	     -5.89831167	    -12.40668261	      3.21470462	      4.02608847	      2.87861048	    -13.23255801	     36.21372115	     16.76419749	     56.95629985	     -3.90615690	    -17.52161934	     33.51706799	     39.33959298	     58.99588091
      0.00833330	     -3.02847678	     -0.75489601	     -0.39670016	     -0.96727794	      1.25402715	     -0.04422583	      8.76325856	      4.43137117	      7.02110772	     13.09007487	      0.22846491	      9.85262352	    -12.91297736	     -6.58216965	     10.90505890	     -1.78871780	      5.80050726	     16.39281046	      0.28610852	      8.56934434	    -14.69702000	     -6.58216965	    -11.81455743	      2.45728888	      4.80087776	      2.91009197	    -13.97300991	     47.21504608	     16.45020906	     47.84263876	     -4.15943440	    -19.15636854	     36.30143340	     40.79328306	     59.02054069
      0.01250000	     -1.90533689	     -0.45669653	     -0.91312876	     -0.96874306	      1.25660065	     -0.04347175	      7.61931401	      4.11240506	      6.85846416	     13.10757989	      0.22877043	     10.34643314	    -11.91499566	     -6.65397459	      9.27721789	     -1.52206209	      5.89015500	     15.71107134	      0.27420992	      8.21007213	    -15.48423112	     -6.65397459	    -13.56430347	      1.85172847	      5.60998865	      2.98383224	    -14.42860798	     48.18674808	     17.25956316	     47.82085267	     -3.93931648	    -20.03578454	     37.33986188	     42.09589583	     59.19359066
      0.01666670	     -1.16412715	     -0.31459638	     -1.20450475	     -0.96875962	      1.25759636	     -0.04293417	      6.76229671	      3.94405873	      6.63079889	     12.95554152	      0.22611686	     10.30921610	    -11.42104281	     -6.99521667	      8.15168364	     -1.37400885	      5.82920764	     15.15531255	      0.26451010	      8.16035664	    -15.83945125	     -6.99521667	    -14.45717647	      1.56159948	      5.99195955	      3.12333242	    -14.89076702	     52.42583362	     17.45712971	     42.02154827	     -3.90341753	    -20.42682321	     37.85491667	     43.44006684	     57.67098550
      0.02083330	     -0.12870599	     -0.19122100	     -1.48530597	     -0.96317911	      1.25938868	     -0.04794023	      5.10984624	      3.61268415	      6.68017292	     12.24666821	      0.21374468	      9.95046765	    -11.04832238	     -7.01541116	      6.44481995	     -1.06049473	      5.96384205	     14.43180066	      0.25188244	      7.98616841	    -16.11009721	     -7.01541116	    -15.15579999	      1.49980080	      6.19075138	      2.65761387	    -15.58833245	     52.80443417	     18.12033142	     41.90900100	     -4.13259158	    -20.35291714	     37.71069490	     43.58624076	     57.38946710
      0.02500000	      0.88885685	     -0.20073927	     -1.74486663	     -0.96216689	      1.26732951	     -0.04771928	      3.27545584	      3.41337580	      6.83634913	     11.07852959	      0.19335682	      9.32364479	    -10.67479763	     -7.03156652	      4.60892530	     -0.90934142	      6.06325442	     13.39158513	      0.23372725	      7.53655757	    -16.34133744	     -7.03156652	    -15.71516943	      1.58577920	      6.30452008	      2.32333882	    -15.92573909	     53.09842450	     18.22201653	     41.68520714	     -4.48315930	    -20.20515144	     37.29699665	     43.57209391	     56.93620373
      0.02916670	      1.53638281	     -0.26956310	     -2.04703288	     -0.96358532	      1.26106620	     -0.04766150	      2.33372630	      3.39079136	      7.27876426	     10.70078611	      0.18676395	      8.99455149	    -10.91037835	     -7.17672164	      3.50426359	     -0.83695461	      6.09531547	     12.90689357	      0.22526779	      7.51479092	    -16.62365253	     -7.17672164	    -15.97831909	      1.61420225	      6.18495111	      2.42020221	    -16.27789738	     55.80084299	     18.43002438	     39.68218034	     -5.18853757	    -20.31260034	     36.57412753	     44.56459037	     54.40801762
      0.03333330	      1.54650307	     -0.23083626	     -2.14643746	     -0.96910984	      1.26472723	     -0.05194583	      2.41700132	      3.19085646	      7.27998944	     10.64943708	      0.18586774	      8.90858438	    -10.90298373	     -7.17718156	      3.54753948	     -0.58550185	      6.13023193	     12.78548125	      0.22314874	      7.50620523	    -16.65146067	     -7.17718156	    -15.91082290	      1.68373256	      6.26529140	      2.70762371	    -16.54616827	     55.77977561	     18.39674979	     39.66762959	     -5.00380755	    -20.11554664	     36.56517387	     44.65742251	     54.40380717
      0.03750000	      2.24354822	     -0.20589633	     -2.06067373	     -0.96371849	      1.26218291	     -0.04783757	      1.30972922	      3.13166009	      7.57368663	      9.94351479	      0.17354707	      8.56302091	    -11.16335384	     -7.30742346	      2.49013619	     -0.46501886	      6.71813814	     12.12806228	      0.21167462	      6.52044920	    -18.26621599	     -7.30742346	    -16.82568022	      1.47136077	      6.21759902	      3.14858662	    -16.61077868	     60.22141918	     18.15304308	     35.62920285	     -4.95563036	    -20.19767833	     36.15149528	     45.01205723	     52.89267149
      0.04166670	      1.96040567	     -0.20543402	     -2.07448579	     -0.96947347	      1.26197033	     -0.05196282	      1.67863035	      3.04759953	      7.61589551	      9.90408981	      0.17285898	      8.38529817	    -11.43822576	     -7.31998333	      2.91003117	     -0.37255613	      6.84052359	     12.12826154	      0.21167810	      6.20024318	    -18.95599829	     -7.31998333	    -16.67443245	      1.46835641	      6.38101175	      3.27423529	    -16.71884802	     61.33855928	     17.91379078	     35.27681221	     -4.70292598	    -20.06588798	     36.10564947	     45.21597444	     52.90745733
